<svg xmlns="http://www.w3.org/2000/svg" viewBox="0 0 319.8 112.37"><defs><style>.cls-1{fill:none;}.cls-2{fill:#0c4160;}.cls-3{fill:#4983a9;}.cls-4{fill:#68869a;}.cls-5{fill:#4b4d48;}</style></defs><g id="Layer_2" data-name="Layer 2"><g id="Layer_1-2" data-name="Layer 1"><polygon class="cls-1" points="210.15 10.8 210.71 58.31 228.95 58.31 210.3 10.8 210.15 10.8"/><path class="cls-1" d="M130.33,55.13v3.18h22.45c-4.17-2.46-9.41-3.71-15.5-3.71A39.81,39.81,0,0,0,130.33,55.13Z"/><polygon class="cls-1" points="288.99 14.35 288.84 14.35 272.75 58.31 288.92 58.31 288.99 14.35"/><path class="cls-1" d="M159,27.79c0-12.38-6.27-20.54-20.84-20.54a45.52,45.52,0,0,0-7.86.75V50a38,38,0,0,0,5.82.45C151.71,50.44,159,42.74,159,27.79Z"/><path class="cls-1" d="M138.19,106.7c14.68,0,23.95-8.37,25.45-21.84H130.33V106A45.52,45.52,0,0,0,138.19,106.7Z"/><polygon class="cls-2" points="38.97 28.09 39.27 28.09 49.11 58.31 68.44 58.31 48.25 0 44.86 0 25.34 58.31 29.05 58.31 38.97 28.09"/><polygon class="cls-2" points="64.94 106.7 54.75 107.46 54.75 110.86 95.15 110.86 95.15 107.46 85.18 106.7 77.62 84.86 57.77 84.86 64.94 106.7"/><polygon class="cls-2" points="9.14 106.7 0 107.46 0 110.86 23.64 110.86 23.64 107.46 13.44 106.7 20.5 84.86 16.45 84.86 9.14 106.7"/><path class="cls-3" d="M138.19,106.7a45.52,45.52,0,0,1-7.86-.75V84.86H111V106.7l-11.63.76v3.4H143c18.79,0,38.24-6.88,40.67-26H163.64C162.14,98.33,152.87,106.7,138.19,106.7Z"/><path class="cls-3" d="M130.33,55.13a39.81,39.81,0,0,1,6.95-.53c6.09,0,11.33,1.25,15.5,3.71h20.16c-6.29-4.38-14.85-6.51-24.48-6.51v-.3c11.85-1.58,30.2-8.23,30.2-24.16,0-19.94-18.72-24.24-38.89-24.24H99.37V6.49L111,7.25V58.31h19.33Zm0-47.13a45.52,45.52,0,0,1,7.86-.75c14.57,0,20.84,8.16,20.84,20.54,0,15-7.32,22.65-22.88,22.65a38,38,0,0,1-5.82-.45Z"/><polygon class="cls-4" points="206.9 106.7 195.27 107.46 195.27 110.86 222.68 110.86 222.68 107.46 211.28 106.7 211.02 84.86 206.9 84.86 206.9 106.7"/><polygon class="cls-4" points="250.17 112.37 252.97 112.37 263.03 84.86 239.38 84.86 250.17 112.37"/><polygon class="cls-4" points="288.84 106.7 277.21 107.46 277.21 110.86 319.8 110.86 319.8 107.46 308.17 106.7 308.17 84.86 288.87 84.86 288.84 106.7"/><polygon class="cls-4" points="210.15 10.8 210.3 10.8 228.95 58.31 249.23 58.31 227.59 3.1 195.27 3.1 195.27 6.49 206.9 7.25 206.9 58.31 210.71 58.31 210.15 10.8"/><polygon class="cls-4" points="319.8 6.49 319.8 3.1 288.84 3.1 268.49 58.31 272.75 58.31 288.84 14.35 288.99 14.35 288.92 58.31 308.17 58.31 308.17 7.25 319.8 6.49"/><path class="cls-5" d="M21.59,78v.4H17.52V78l1.86-.76,5.49-14.42h.31l5.19,14.89,1.74.29v.4H26.53V78l1.56-.25-1.62-4.5h-5l-1.54,4Zm2.47-11.84-2.49,6.69h4.77Z"/><path class="cls-5" d="M55.48,74.29A3.45,3.45,0,0,1,54,77.39a7.42,7.42,0,0,1-4.13,1H43.11V78l1.75-.29V63.88l-1.75-.27V63.2h5.8a8.18,8.18,0,0,1,4.3.84,3,3,0,0,1,1.29,2.71c0,1.82-1.16,3-3.46,3.5v.09Q55.48,70.93,55.48,74.29ZM48.91,63.67H47v6.52h2.11a3.1,3.1,0,0,0,2.34-.86,3.4,3.4,0,0,0,.82-2.43v-.11C52.22,64.71,51.11,63.67,48.91,63.67Zm.91,7H47v7.28h2.87A3.29,3.29,0,0,0,52.33,77a3.78,3.78,0,0,0,.89-2.69V74.1a3.43,3.43,0,0,0-.88-2.58A3.48,3.48,0,0,0,49.82,70.66Z"/><path class="cls-5" d="M72.39,74.24a4.33,4.33,0,0,1-1.27,3.41A6.12,6.12,0,0,1,67,78.78a5.8,5.8,0,0,1-4.13-1.25,4.37,4.37,0,0,1-1.29-3.29V63.88l-1.75-.27V63.2h5.59v.41l-1.75.27V74.24q0,3.86,4.22,3.85c2.68,0,4-1.28,4-3.85V64.36l-1.77-.75V63.2h4v.41l-1.83.75Z"/><path class="cls-5" d="M87.84,62.82h.42v3.87h-.42l-1.37-2.77a7,7,0,0,0-3.09-.69,3.83,3.83,0,0,0-2.61.85,2.85,2.85,0,0,0-1,2.23,2,2,0,0,0,.68,1.62,4.94,4.94,0,0,0,2,.93l3.4.89a4.34,4.34,0,0,1,2.46,1.44,4.91,4.91,0,0,1,.81,3.1,4.24,4.24,0,0,1-1.3,3.29,5,5,0,0,1-3.49,1.2,6.8,6.8,0,0,1-3.47-1l-1.62.82h-.42V73.7h.42l1.64,3.54a5.83,5.83,0,0,0,3.42,1.12,4.61,4.61,0,0,0,3-.88A3,3,0,0,0,88.37,75a2.42,2.42,0,0,0-.7-1.84,5,5,0,0,0-2.28-1.07l-3.15-.82a4.49,4.49,0,0,1-2.49-1.49,3.89,3.89,0,0,1-.84-2.5A4.47,4.47,0,0,1,80.09,64a4.33,4.33,0,0,1,3.27-1.22,7.6,7.6,0,0,1,3.09.59Z"/><path class="cls-5" d="M99.37,78v.4H93.79V78l1.75-.29V63.88l-1.75-.27V63.2h5.58v.41l-1.75.27V77.71Z"/><path class="cls-5" d="M105.7,77.24V64.36l-1.77-.75V63.2h3.54l8.19,11.47V64.36l-1.77-.75V63.2h4v.41l-1.81.75v14h-.47l-9.49-13.32V77.24L108,78v.4h-4.07V78Z"/><path class="cls-5" d="M129.75,67.76h.5v6h-.5L128.61,71h-2.45v7h6l1.56-4.18h.49V78.4H122.33V78l1.74-.29V63.88l-1.74-.27V63.2h11.43v4.35h-.51l-1.46-3.88h-5.63v6.84h2.47Z"/><path class="cls-5" d="M148.47,62.82h.42v3.87h-.42l-1.37-2.77a7,7,0,0,0-3.09-.69,3.79,3.79,0,0,0-2.61.85,2.85,2.85,0,0,0-1,2.23,2.06,2.06,0,0,0,.67,1.62,5,5,0,0,0,2,.93l3.4.89A4.41,4.41,0,0,1,149,71.19a4.91,4.91,0,0,1,.81,3.1,4.24,4.24,0,0,1-1.3,3.29,5,5,0,0,1-3.49,1.2,6.8,6.8,0,0,1-3.48-1l-1.61.82h-.42V73.7h.42l1.63,3.54A5.86,5.86,0,0,0,145,78.36a4.61,4.61,0,0,0,2.95-.88A3,3,0,0,0,149,75a2.42,2.42,0,0,0-.7-1.84A5,5,0,0,0,146,72.09l-3.16-.82a4.56,4.56,0,0,1-2.49-1.49,3.94,3.94,0,0,1-.83-2.5A4.47,4.47,0,0,1,140.72,64,4.32,4.32,0,0,1,144,62.82a7.62,7.62,0,0,1,3.1.59Z"/><path class="cls-5" d="M163.9,62.82h.41v3.87h-.41l-1.37-2.77a7,7,0,0,0-3.09-.69,3.79,3.79,0,0,0-2.61.85,2.82,2.82,0,0,0-1,2.23,2,2,0,0,0,.67,1.62,4.92,4.92,0,0,0,2,.93l3.4.89a4.41,4.41,0,0,1,2.46,1.44,4.91,4.91,0,0,1,.81,3.1,4.27,4.27,0,0,1-1.3,3.29,5,5,0,0,1-3.49,1.2,6.8,6.8,0,0,1-3.48-1l-1.61.82h-.42V73.7h.42L157,77.24a5.86,5.86,0,0,0,3.43,1.12,4.61,4.61,0,0,0,3-.88A3,3,0,0,0,164.43,75a2.46,2.46,0,0,0-.7-1.84,5,5,0,0,0-2.28-1.07l-3.16-.82a4.56,4.56,0,0,1-2.49-1.49,3.88,3.88,0,0,1-.83-2.5A4.51,4.51,0,0,1,156.14,64a4.36,4.36,0,0,1,3.27-1.22,7.65,7.65,0,0,1,3.1.59Z"/><path class="cls-5" d="M179.23,77.24V63.88l-1.75-.27V63.2h4.2l4.77,12.19,4.86-12.19h3.84v.41l-1.75.27V77.71l1.75.29v.4h-5.58V78l1.74-.29V64.45l-5.62,14.14h-.34l-5.66-14.71V77.24l1.82.76v.4h-4.07V78Z"/><path class="cls-5" d="M202.49,78v.4h-4.07V78l1.86-.76,5.49-14.42h.31l5.18,14.89L213,78v.4h-5.58V78l1.55-.25-1.61-4.5h-5.06l-1.54,4ZM205,66.16l-2.49,6.69h4.77Z"/><path class="cls-5" d="M227.55,62.82h.39v4.71h-.39l-1.26-3.14a5,5,0,0,0-3.3-1.14,4.05,4.05,0,0,0-3.24,1.55,6.39,6.39,0,0,0-1.31,4.25v3.48a6.73,6.73,0,0,0,1.22,4.26,3.91,3.91,0,0,0,3.23,1.55,3.11,3.11,0,0,0,2.54-1.1,4.6,4.6,0,0,0,.9-3V72.11l-1.77-.27v-.42h5.68v.42l-1.76.27v2.14a4.26,4.26,0,0,1-1.4,3.21,5.9,5.9,0,0,1-4.19,1.32,6.25,6.25,0,0,1-5-2.21A8.63,8.63,0,0,1,216,70.81,8.43,8.43,0,0,1,218,65a6.48,6.48,0,0,1,5.11-2.21,5.56,5.56,0,0,1,3.31,1Z"/><path class="cls-5" d="M236.69,78v.4h-4.07V78l1.86-.76L240,62.82h.31l5.18,14.89,1.75.29v.4h-5.58V78l1.55-.25-1.61-4.5h-5.06l-1.53,4Zm2.47-11.84-2.49,6.69h4.77Z"/><path class="cls-5" d="M251.41,63.2h10.45v.47L253,77.94h6.65l2-3.89h.49l-.46,4.35H250.4v-.46l8.89-14.27h-5.88l-2,3.61H251Z"/><path class="cls-5" d="M272.21,78v.4h-5.58V78l1.75-.29V63.88l-1.75-.27V63.2h5.58v.41l-1.74.27V77.71Z"/><path class="cls-5" d="M278.54,77.24V64.36l-1.77-.75V63.2h3.54l8.19,11.47V64.36l-1.77-.75V63.2h4v.41l-1.81.75v14h-.47L279,65.08V77.24l1.82.76v.4h-4.07V78Z"/><path class="cls-5" d="M302.6,67.76h.49v6h-.49L301.46,71H299v7h6l1.56-4.18H307V78.4H295.17V78l1.75-.29V63.88l-1.75-.27V63.2H306.6v4.35h-.51l-1.46-3.88H299v6.84h2.47Z"/></g></g></svg>