<svg xmlns="http://www.w3.org/2000/svg" viewBox="0 0 217.17 109.02"><defs><style>.cls-1{fill:none;}.cls-2{fill:#7f8e99;}.cls-3{fill:#68869a;}.cls-4{fill:#dbff9b;}.cls-5{fill:#4983a9;}.cls-6{fill:#0c4160;}</style></defs><g id="Layer_2" data-name="Layer 2"><g id="Layer_1-2" data-name="Layer 1"><polygon class="cls-1" points="31.9 40 19.29 78.45 44.52 77.96 32.15 40 31.9 40"/><path class="cls-1" d="M108,24.69c0-12.38-6.26-20.54-20.84-20.54a44.65,44.65,0,0,0-7.85.76v42a37.9,37.9,0,0,0,5.81.45C100.64,47.35,108,39.65,108,24.69Z"/><path class="cls-1" d="M86.22,51.5a39.66,39.66,0,0,0-7,.53v50.82a44.65,44.65,0,0,0,7.85.76c16.09,0,25.68-10,25.68-25.83C112.8,60.56,102.6,51.5,86.22,51.5Z"/><path class="cls-1" d="M97.39,48.41v.3c10.14,0,19.07,2.35,25.45,7.2V36.74C116.59,43.88,105.48,47.32,97.39,48.41Z"/><path class="cls-2" d="M59.94,76,39.51,17H36.73L7.48,104.36,0,105v2.78H19.35V105L11,104.36l7.17-22.2h27.7l7.19,21.89,6.87-.44ZM19.29,78.45,31.9,40h.25L44.52,78Z"/><polygon class="cls-3" points="44.83 104.98 44.83 107.76 48.31 107.76 48.31 104.72 44.83 104.98"/><polygon class="cls-4" points="53.07 104.05 48.31 104.36 48.31 104.72 53.17 104.36 53.07 104.05"/><path class="cls-3" d="M132.88,77.63c0-8-2.55-14.3-6.92-18.93l.44,37C130.43,91.22,132.88,85.27,132.88,77.63Z"/><path class="cls-3" d="M125.55,24.16l.1,8.43a18.16,18.16,0,0,0,1.56-4.52l-1.53-3.91Z"/><path class="cls-3" d="M97.39,48.71v-.3c8.09-1.09,19.2-4.53,25.45-11.67V21.19l-9.72-.63V17.72h13.69C123.08,3.34,106.45,0,88.71,0H48.31V3.4l11.63.75V76l9.8,28.34,8.16.62v2.78H92c11.36,0,23-2.51,30.89-8.72V55.91C116.46,51.06,107.53,48.71,97.39,48.71ZM79.27,4.91a44.65,44.65,0,0,1,7.85-.76C101.7,4.15,108,12.31,108,24.69c0,15-7.32,22.66-22.88,22.66a37.9,37.9,0,0,1-5.81-.45Zm7.85,98.7a44.65,44.65,0,0,1-7.85-.76V52a39.66,39.66,0,0,1,7-.53c16.38,0,26.58,9.06,26.58,26.28C112.8,93.56,103.21,103.61,87.12,103.61Z"/><polygon class="cls-5" points="69.74 104.36 59.94 76.02 59.94 103.61 53.07 104.05 53.17 104.36 48.31 104.72 48.31 107.76 77.9 107.76 77.9 104.98 69.74 104.36"/><path class="cls-6" d="M122.84,99v5.25l-9.72.63v2.84H136v-2.84l-9.52-.63-.1-8.56A26.59,26.59,0,0,1,122.84,99Z"/><path class="cls-6" d="M122.84,55.91A25.89,25.89,0,0,1,126,58.7l-.31-26.11a20.2,20.2,0,0,1-2.81,4.15Z"/><path class="cls-6" d="M217.17,20.56V17.72H191.3L166.56,84.86h-.12L140.13,17.72H126.81a25.88,25.88,0,0,1,.79,6.52,19,19,0,0,1-.39,3.83L159,109h2.34l30-81.9h.12l-.12,77.17-9.72.63v2.84h35.59v-2.84l-9.72-.63V21.19Z"/><path class="cls-5" d="M122.84,99a26.59,26.59,0,0,0,3.56-3.31l-.44-37a25.89,25.89,0,0,0-3.12-2.79Z"/><path class="cls-5" d="M126.81,17.72H113.12v2.84l9.72.63V36.74a20.2,20.2,0,0,0,2.81-4.15l-.1-8.43h.13l1.53,3.91a19,19,0,0,0,.39-3.83A25.88,25.88,0,0,0,126.81,17.72Z"/></g></g></svg>