<svg xmlns="http://www.w3.org/2000/svg" viewBox="0 0 384.19 267.63"><defs><style>.cls-1{fill:#4983a9;}.cls-2{fill:#fd34a4;}.cls-3{fill:#391754;}</style></defs><g id="Layer_2" data-name="Layer 2"><g id="Layer_1-2" data-name="Layer 1"><path class="cls-1" d="M132.8,193.36H52.62L31.86,257.61,56,259.4v8.05H0V259.4l21.66-1.79L106.31,4.72h8l87.52,252.89,23.62,1.79v8.05H129.75V259.4l24.16-1.79Zm-77-10.74,73-1.43L93.06,71.3h-.71Z"/><path class="cls-2" d="M167.58,5.25V0H230c31.18,0,60.13,6.66,60.13,37.48,0,24.64-28.37,34.91-46.7,37.36v.47c31.06,0,54.88,14.24,54.88,44.72,0,34.44-32.23,46.59-63.29,46.59H167.58v-5.26l18-1.17V6.42Zm47.87,67.26a57.93,57.93,0,0,0,9,.7c24.05,0,35.38-11.91,35.38-35,0-19.15-9.7-31.76-32.23-31.76a70.19,70.19,0,0,0-12.14,1.17Zm0,86.52a70,70,0,0,0,12.14,1.16c24.87,0,39.7-15.52,39.7-39.93,0-26.62-15.76-40.63-41.1-40.63a61.11,61.11,0,0,0-10.74.82Z"/><path class="cls-3" d="M384.19,125.8l-15.58,1V260l15.58,1v4.56H327.13v-4.56l15.58-1,.2-123.72h-.2l-48,131.31h-3.75L237.5,131.56h-.21L238.81,260l15.28,1v4.56H217.37v-4.56l15.57-1V126.81l-15.57-1v-4.56h43.29l42.19,107.64h.2l39.66-107.64h41.48Z"/></g></g></svg>